<svg xmlns="http://www.w3.org/2000/svg" version="1.1" width="555px" height="411px" style="shape-rendering:geometricPrecision; text-rendering:geometricPrecision; image-rendering:optimizeQuality; fill-rule:evenodd; clip-rule:evenodd" xmlns:xlink="http://www.w3.org/1999/xlink">
<g><path style="opacity:1" fill="#bcbec0" d="M -0.5,-0.5 C 184.5,-0.5 369.5,-0.5 554.5,-0.5C 554.5,136.5 554.5,273.5 554.5,410.5C 369.5,410.5 184.5,410.5 -0.5,410.5C -0.5,273.5 -0.5,136.5 -0.5,-0.5 Z"/></g>
<g><path style="opacity:1" fill="#e6e7e8" d="M 275.5,62.5 C 291.327,64.1434 296.827,72.4768 292,87.5C 283.542,97.0451 274.542,97.7118 265,89.5C 258.376,76.2255 261.876,67.2255 275.5,62.5 Z"/></g>
<g><path style="opacity:1" fill="#e6e7e8" d="M 244.5,119.5 C 238.642,119.822 232.975,119.489 227.5,118.5C 235.452,109.881 243.785,101.548 252.5,93.5C 255.368,96.5315 258.035,99.6982 260.5,103C 255.675,108.991 250.342,114.491 244.5,119.5 Z"/></g>
<g><path style="opacity:1" fill="#e6e7e8" d="M 302.5,93.5 C 311.251,101.749 319.917,110.249 328.5,119C 322.5,119.667 316.5,119.667 310.5,119C 304.985,113.652 299.652,108.152 294.5,102.5C 297.903,100.1 300.57,97.1002 302.5,93.5 Z"/></g>
<g><path style="opacity:1" fill="#c7c8ca" d="M 227.5,118.5 C 232.975,119.489 238.642,119.822 244.5,119.5C 238.654,120.817 232.654,120.817 226.5,119.5C 226.624,118.893 226.957,118.56 227.5,118.5 Z"/></g>
<g><path style="opacity:1" fill="#e8e9ea" d="M 173.5,132.5 C 243.167,132.5 312.833,132.5 382.5,132.5C 382.5,185.167 382.5,237.833 382.5,290.5C 312.833,290.5 243.167,290.5 173.5,290.5C 173.5,237.833 173.5,185.167 173.5,132.5 Z"/></g>
<g><path style="opacity:1" fill="#e6e7e8" d="M 174.5,134.5 C 243.5,134.5 312.5,134.5 381.5,134.5C 381.5,186.167 381.5,237.833 381.5,289.5C 312.5,289.5 243.5,289.5 174.5,289.5C 174.5,237.833 174.5,186.167 174.5,134.5 Z"/></g>
<g><path style="opacity:1" fill="#e9eaeb" d="M 195.5,155.5 C 250.332,154.335 305.332,154.168 360.5,155C 361.663,192.429 361.829,229.929 361,267.5C 360.833,230.331 360.333,193.331 359.5,156.5C 305.003,155.501 250.336,155.168 195.5,155.5 Z"/></g>
<g><path style="opacity:1" fill="#d6d7d9" d="M 195.5,155.5 C 250.336,155.168 305.003,155.501 359.5,156.5C 305.167,156.5 250.833,156.5 196.5,156.5C 196.5,193.833 196.5,231.167 196.5,268.5C 195.502,231.004 195.168,193.337 195.5,155.5 Z"/></g>
<g><path style="opacity:1" fill="#bcbdbf" d="M 359.5,156.5 C 359.5,193.833 359.5,231.167 359.5,268.5C 305.167,268.5 250.833,268.5 196.5,268.5C 196.5,231.167 196.5,193.833 196.5,156.5C 250.833,156.5 305.167,156.5 359.5,156.5 Z"/></g>
<g><path style="opacity:1" fill="#bcbec0" d="M 197.5,157.5 C 251.167,157.5 304.833,157.5 358.5,157.5C 358.5,193.833 358.5,230.167 358.5,266.5C 304.833,266.5 251.167,266.5 197.5,266.5C 197.5,230.167 197.5,193.833 197.5,157.5 Z"/></g>
<g><path style="opacity:1" fill="#c5c7c9" d="M 220.5,251.5 C 261.167,252.833 301.833,252.833 342.5,251.5C 343.043,251.56 343.376,251.893 343.5,252.5C 302.167,253.833 260.833,253.833 219.5,252.5C 219.624,251.893 219.957,251.56 220.5,251.5 Z"/></g>
<g><path style="opacity:1" fill="#e6e7e8" d="M 342.5,251.5 C 301.833,252.833 261.167,252.833 220.5,251.5C 233.497,237.001 246.33,222.334 259,207.5C 263.667,212.167 268.333,216.833 273,221.5C 281.667,209.5 290.333,197.5 299,185.5C 313.759,207.357 328.259,229.357 342.5,251.5 Z"/></g>
<g><path style="opacity:1" fill="#e6e7e8" d="M 231.5,169.5 C 242.974,168.475 249.64,173.641 251.5,185C 249.473,197.033 242.473,202.033 230.5,200C 220.917,194.583 218.084,186.75 222,176.5C 224.529,173.115 227.696,170.782 231.5,169.5 Z"/></g>
<g><path style="opacity:1" fill="#dddfe0" d="M 173.5,132.5 C 173.5,185.167 173.5,237.833 173.5,290.5C 243.167,290.5 312.833,290.5 382.5,290.5C 312.669,291.499 242.669,291.833 172.5,291.5C 172.168,238.331 172.501,185.331 173.5,132.5 Z"/></g>
</svg>
